<svg xmlns="http://www.w3.org/2000/svg" viewBox="0 0 1200 920" font-family="Segoe UI, Roboto, Helvetica, Arial, sans-serif">
  <defs>
    <marker id="arwBlue" markerWidth="10" markerHeight="7" refX="10" refY="3.5" orient="auto">
      <polygon points="0 0, 10 3.5, 0 7" fill="#2B6CB0"/>
    </marker>
    <marker id="arwGreen" markerWidth="10" markerHeight="7" refX="10" refY="3.5" orient="auto">
      <polygon points="0 0, 10 3.5, 0 7" fill="#276749"/>
    </marker>
    <marker id="arwPurple" markerWidth="10" markerHeight="7" refX="10" refY="3.5" orient="auto">
      <polygon points="0 0, 10 3.5, 0 7" fill="#6B46C1"/>
    </marker>
    <marker id="arwOrange" markerWidth="10" markerHeight="7" refX="10" refY="3.5" orient="auto">
      <polygon points="0 0, 10 3.5, 0 7" fill="#C05621"/>
    </marker>
    <marker id="arwRed" markerWidth="10" markerHeight="7" refX="10" refY="3.5" orient="auto">
      <polygon points="0 0, 10 3.5, 0 7" fill="#9B2C2C"/>
    </marker>
    <marker id="arwGray" markerWidth="10" markerHeight="7" refX="10" refY="3.5" orient="auto">
      <polygon points="0 0, 10 3.5, 0 7" fill="#718096"/>
    </marker>
    <filter id="shd" x="-2%" y="-2%" width="104%" height="104%">
      <feDropShadow dx="1" dy="1" stdDeviation="2" flood-opacity="0.12"/>
    </filter>
  </defs>

  <rect width="1200" height="920" rx="8" fill="#F7FAFC"/>

  <text x="600" y="36" text-anchor="middle" font-size="20" font-weight="700" fill="#1A202C">Cost Management On-Premise &#8212; Data Processing Flow</text>
  <text x="600" y="56" text-anchor="middle" font-size="12" fill="#718096">CMMO Upload &#8594; Ingress &#8594; Koku Processing &#8594; Database (with JWT Authentication)</text>

  <rect x="20" y="75" width="210" height="250" rx="6" fill="#EBF8FF" stroke="#BEE3F8" stroke-width="1.5"/>
  <text x="125" y="96" text-anchor="middle" font-size="11" font-weight="600" fill="#2B6CB0">OpenShift Cluster (Operator)</text>

  <rect x="40" y="115" width="170" height="60" rx="8" fill="#fff" stroke="#2B6CB0" stroke-width="1.5" filter="url(#shd)"/>
  <text x="125" y="139" text-anchor="middle" font-size="13" font-weight="600" fill="#2B6CB0">CMMO</text>
  <text x="125" y="156" text-anchor="middle" font-size="9.5" fill="#4A5568">Cost Management</text>
  <text x="125" y="168" text-anchor="middle" font-size="9.5" fill="#4A5568">Metrics Operator</text>

  <rect x="35" y="200" width="180" height="50" rx="6" fill="#EBF4FF" stroke="#BEE3F8" stroke-width="1"/>
  <text x="125" y="218" text-anchor="middle" font-size="10" fill="#2B6CB0" font-weight="600">Upload Payload</text>
  <text x="125" y="232" text-anchor="middle" font-size="9" fill="#4A5568">.tgz (manifest.json + CSVs)</text>
  <text x="125" y="244" text-anchor="middle" font-size="9" fill="#4A5568">Content-Type: hccm+tgz</text>

  <rect x="35" y="262" width="180" height="48" rx="6" fill="#FFF5F5" stroke="#FED7D7" stroke-width="1"/>
  <text x="125" y="280" text-anchor="middle" font-size="10" fill="#9B2C2C" font-weight="600">JWT Authentication</text>
  <text x="125" y="294" text-anchor="middle" font-size="9" fill="#4A5568">Client: cost-management-operator</text>

  <rect x="250" y="75" width="930" height="830" rx="6" fill="#F0FFF4" stroke="#C6F6D5" stroke-width="1.5"/>
  <text x="715" y="96" text-anchor="middle" font-size="11" font-weight="600" fill="#276749">OpenShift Cluster &#8212; cost-onprem Namespace</text>

  <rect x="510" y="115" width="160" height="54" rx="8" fill="#fff" stroke="#9B2C2C" stroke-width="1.5" filter="url(#shd)"/>
  <text x="590" y="139" text-anchor="middle" font-size="13" font-weight="600" fill="#9B2C2C">Keycloak (RHBK)</text>
  <text x="590" y="156" text-anchor="middle" font-size="10" fill="#4A5568">OIDC / JWKS Provider</text>

  <rect x="280" y="200" width="160" height="54" rx="8" fill="#fff" stroke="#276749" stroke-width="1.5" filter="url(#shd)"/>
  <text x="360" y="224" text-anchor="middle" font-size="13" font-weight="600" fill="#276749">OpenShift Route</text>
  <text x="360" y="241" text-anchor="middle" font-size="10" fill="#4A5568">/api &#8594; Gateway</text>

  <rect x="510" y="200" width="190" height="54" rx="8" fill="#fff" stroke="#276749" stroke-width="1.5" filter="url(#shd)"/>
  <text x="605" y="224" text-anchor="middle" font-size="13" font-weight="600" fill="#276749">Envoy Gateway</text>
  <text x="605" y="241" text-anchor="middle" font-size="10" fill="#4A5568">JWT Validation + X-Rh-Identity</text>

  <rect x="510" y="300" width="190" height="54" rx="8" fill="#fff" stroke="#6B46C1" stroke-width="1.5" filter="url(#shd)"/>
  <text x="605" y="324" text-anchor="middle" font-size="13" font-weight="600" fill="#6B46C1">Ingress Service</text>
  <text x="605" y="341" text-anchor="middle" font-size="10" fill="#4A5568">insights-ingress-go</text>

  <rect x="800" y="300" width="160" height="54" rx="8" fill="#fff" stroke="#C05621" stroke-width="1.5" filter="url(#shd)"/>
  <text x="880" y="324" text-anchor="middle" font-size="13" font-weight="600" fill="#C05621">S3 Storage</text>
  <text x="880" y="341" text-anchor="middle" font-size="10" fill="#4A5568">NooBaa / ODF / MinIO</text>

  <rect x="1000" y="290" width="155" height="72" rx="6" fill="#FFFAF0" stroke="#FEEBC8" stroke-width="1"/>
  <text x="1077" y="308" text-anchor="middle" font-size="10" fill="#C05621" font-weight="600">Buckets</text>
  <text x="1077" y="323" text-anchor="middle" font-size="9" fill="#4A5568">insights-upload-perma</text>
  <text x="1077" y="337" text-anchor="middle" font-size="9" fill="#4A5568">koku-bucket</text>
  <text x="1077" y="351" text-anchor="middle" font-size="9" fill="#4A5568">ros-data</text>

  <rect x="510" y="400" width="190" height="54" rx="8" fill="#fff" stroke="#D69E2E" stroke-width="1.5" filter="url(#shd)"/>
  <text x="605" y="424" text-anchor="middle" font-size="13" font-weight="600" fill="#975A16">Kafka (AMQ Streams)</text>
  <text x="605" y="441" text-anchor="middle" font-size="10" fill="#4A5568">Message Broker</text>

  <rect x="750" y="390" width="210" height="72" rx="6" fill="#FFFFF0" stroke="#FEFCBF" stroke-width="1"/>
  <text x="855" y="408" text-anchor="middle" font-size="10" fill="#975A16" font-weight="600">Topics</text>
  <text x="855" y="423" text-anchor="middle" font-size="9" fill="#4A5568">platform.upload.announce</text>
  <text x="855" y="437" text-anchor="middle" font-size="9" fill="#4A5568">hccm.ros.events</text>
  <text x="855" y="451" text-anchor="middle" font-size="9" fill="#4A5568">rosocp.kruize.recommendations</text>

  <rect x="270" y="490" width="710" height="80" rx="6" fill="#EBF4FF" stroke="#BEE3F8" stroke-width="1.2" stroke-dasharray="6,3"/>
  <text x="625" y="510" text-anchor="middle" font-size="11" font-weight="600" fill="#2B6CB0">Koku Processing Pipeline</text>

  <rect x="290" y="520" width="140" height="40" rx="8" fill="#fff" stroke="#2B6CB0" stroke-width="1.5" filter="url(#shd)"/>
  <text x="360" y="545" text-anchor="middle" font-size="12" font-weight="600" fill="#2B6CB0">Koku Listener</text>

  <rect x="470" y="520" width="140" height="40" rx="8" fill="#fff" stroke="#2B6CB0" stroke-width="1.5" filter="url(#shd)"/>
  <text x="540" y="545" text-anchor="middle" font-size="12" font-weight="600" fill="#2B6CB0">MASU Processor</text>

  <rect x="650" y="520" width="140" height="40" rx="8" fill="#fff" stroke="#2B6CB0" stroke-width="1.5" filter="url(#shd)"/>
  <text x="720" y="545" text-anchor="middle" font-size="12" font-weight="600" fill="#2B6CB0">Celery Workers</text>

  <rect x="830" y="520" width="130" height="40" rx="8" fill="#fff" stroke="#718096" stroke-width="1.5" filter="url(#shd)"/>
  <text x="895" y="539" text-anchor="middle" font-size="11" font-weight="600" fill="#718096">Celery Beat</text>
  <text x="895" y="553" text-anchor="middle" font-size="9.5" fill="#718096">+ Valkey (broker)</text>

  <rect x="420" y="610" width="190" height="68" rx="8" fill="#fff" stroke="#276749" stroke-width="1.5" filter="url(#shd)"/>
  <text x="515" y="632" text-anchor="middle" font-size="13" font-weight="600" fill="#276749">PostgreSQL</text>
  <text x="515" y="648" text-anchor="middle" font-size="10" fill="#4A5568">costonprem_koku</text>
  <text x="515" y="662" text-anchor="middle" font-size="10" fill="#4A5568">costonprem_ros / costonprem_kruize</text>

  <rect x="270" y="700" width="570" height="80" rx="6" fill="#FAF5FF" stroke="#E9D8FD" stroke-width="1.2" stroke-dasharray="6,3"/>
  <text x="555" y="720" text-anchor="middle" font-size="11" font-weight="600" fill="#6B46C1">ROS (Resource Optimization) Pipeline</text>

  <rect x="290" y="730" width="150" height="40" rx="8" fill="#fff" stroke="#6B46C1" stroke-width="1.5" filter="url(#shd)"/>
  <text x="365" y="755" text-anchor="middle" font-size="12" font-weight="600" fill="#6B46C1">ROS Processor</text>

  <rect x="490" y="730" width="140" height="40" rx="8" fill="#fff" stroke="#6B46C1" stroke-width="1.5" filter="url(#shd)"/>
  <text x="560" y="755" text-anchor="middle" font-size="12" font-weight="600" fill="#6B46C1">Kruize</text>

  <rect x="680" y="730" width="140" height="40" rx="8" fill="#fff" stroke="#6B46C1" stroke-width="1.5" filter="url(#shd)"/>
  <text x="750" y="755" text-anchor="middle" font-size="12" font-weight="600" fill="#6B46C1">ROS API</text>


  <!-- A: CMMO -> Keycloak (get JWT) -->
  <path d="M 160 115 Q 160 80 350 80 Q 508 80 508 120" fill="none" stroke="#9B2C2C" stroke-width="1.6" marker-end="url(#arwRed)" stroke-dasharray="5,3"/>
  <rect x="310" y="68" width="16" height="15" rx="7" fill="#9B2C2C"/>
  <text x="318" y="79" text-anchor="middle" font-size="9" font-weight="700" fill="#fff">A</text>
  <text x="340" y="79" font-size="9" fill="#9B2C2C" font-weight="600">Get JWT</text>

  <!-- 1: CMMO -> Route (upload, routed right of Upload Payload box) -->
  <path d="M 210 145 L 232 145 L 232 227 L 278 227" fill="none" stroke="#2B6CB0" stroke-width="1.8" marker-end="url(#arwBlue)"/>
  <rect x="238" y="183" width="16" height="15" rx="7" fill="#2B6CB0"/>
  <text x="246" y="194" text-anchor="middle" font-size="9" font-weight="700" fill="#fff">1</text>
  <text x="264" y="194" font-size="9" fill="#2B6CB0" font-weight="600">POST /api/ingress/v1/upload</text>

  <!-- 2: Route -> Gateway -->
  <line x1="440" y1="227" x2="508" y2="227" stroke="#276749" stroke-width="1.8" marker-end="url(#arwGreen)"/>
  <rect x="460" y="215" width="16" height="15" rx="7" fill="#276749"/>
  <text x="468" y="226" text-anchor="middle" font-size="9" font-weight="700" fill="#fff">2</text>

  <!-- B: Gateway -> Keycloak (JWKS) -->
  <path d="M 605 200 L 605 169" fill="none" stroke="#718096" stroke-width="1.3" marker-end="url(#arwGray)" stroke-dasharray="4,3"/>
  <rect x="610" y="178" width="16" height="15" rx="7" fill="#718096"/>
  <text x="618" y="189" text-anchor="middle" font-size="9" font-weight="700" fill="#fff">B</text>
  <text x="641" y="189" font-size="9" fill="#718096">JWKS</text>

  <!-- 3: Gateway -> Ingress -->
  <line x1="605" y1="254" x2="605" y2="298" stroke="#276749" stroke-width="1.8" marker-end="url(#arwGreen)"/>
  <rect x="610" y="268" width="16" height="15" rx="7" fill="#276749"/>
  <text x="618" y="279" text-anchor="middle" font-size="9" font-weight="700" fill="#fff">3</text>
  <text x="641" y="279" font-size="9" fill="#276749" font-weight="600">+ X-Rh-Identity</text>

  <!-- 4: Ingress -> S3 (store) -->
  <line x1="700" y1="327" x2="798" y2="327" stroke="#C05621" stroke-width="1.8" marker-end="url(#arwOrange)"/>
  <rect x="735" y="315" width="16" height="15" rx="7" fill="#C05621"/>
  <text x="743" y="326" text-anchor="middle" font-size="9" font-weight="700" fill="#fff">4</text>
  <text x="743" y="311" text-anchor="middle" font-size="9" fill="#C05621" font-weight="600">Store tarball</text>

  <!-- 5: Ingress -> Kafka (announce) -->
  <line x1="605" y1="354" x2="605" y2="398" stroke="#975A16" stroke-width="1.8" marker-end="url(#arwOrange)"/>
  <rect x="610" y="368" width="16" height="15" rx="7" fill="#975A16"/>
  <text x="618" y="379" text-anchor="middle" font-size="9" font-weight="700" fill="#fff">5</text>
  <text x="641" y="379" font-size="9" fill="#975A16" font-weight="600">Announce upload</text>

  <!-- 6: Kafka -> Listener (consume, routed left to avoid crossing arrow 10) -->
  <path d="M 510 450 Q 420 475 360 518" fill="none" stroke="#2B6CB0" stroke-width="1.8" marker-end="url(#arwBlue)"/>
  <rect x="408" y="468" width="16" height="15" rx="7" fill="#2B6CB0"/>
  <text x="416" y="479" text-anchor="middle" font-size="9" font-weight="700" fill="#fff">6</text>
  <text x="390" y="464" font-size="9" fill="#2B6CB0" font-weight="600">Consume announce</text>

  <!-- 7: Listener -> MASU -->
  <line x1="430" y1="540" x2="468" y2="540" stroke="#2B6CB0" stroke-width="1.8" marker-end="url(#arwBlue)"/>
  <rect x="440" y="528" width="16" height="15" rx="7" fill="#2B6CB0"/>
  <text x="448" y="539" text-anchor="middle" font-size="9" font-weight="700" fill="#fff">7</text>

  <!-- 8: MASU -> Workers -->
  <line x1="610" y1="540" x2="648" y2="540" stroke="#2B6CB0" stroke-width="1.8" marker-end="url(#arwBlue)"/>
  <rect x="620" y="528" width="16" height="15" rx="7" fill="#2B6CB0"/>
  <text x="628" y="539" text-anchor="middle" font-size="9" font-weight="700" fill="#fff">8</text>

  <!-- Pipelines -> S3 (read data, single arrow for both Koku and ROS pipelines) -->
  <path d="M 980 510 Q 1010 430 960 354" fill="none" stroke="#C05621" stroke-width="1.3" marker-end="url(#arwOrange)" stroke-dasharray="4,3"/>
  <text x="1015" y="440" font-size="9" fill="#C05621">Read data</text>
  <text x="1015" y="452" font-size="8" fill="#718096">(both pipelines)</text>

  <!-- 9: Workers -> Database -->
  <path d="M 720 560 L 720 600 Q 720 620 612 630" fill="none" stroke="#276749" stroke-width="1.8" marker-end="url(#arwGreen)"/>
  <rect x="700" y="580" width="16" height="15" rx="7" fill="#276749"/>
  <text x="708" y="591" text-anchor="middle" font-size="9" font-weight="700" fill="#fff">9</text>
  <text x="730" y="591" font-size="9" fill="#276749" font-weight="600">Store processed data</text>

  <!-- 10: MASU -> Kafka (ROS events, from MASU left corner) -->
  <path d="M 470 520 Q 480 487 520 454" fill="none" stroke="#6B46C1" stroke-width="1.6" marker-end="url(#arwPurple)"/>
  <rect x="448" y="478" width="22" height="15" rx="7" fill="#6B46C1"/>
  <text x="459" y="489" text-anchor="middle" font-size="9" font-weight="700" fill="#fff">10</text>
  <text x="435" y="474" font-size="9" fill="#6B46C1" font-weight="600" text-anchor="end">ROS events</text>

  <!-- 11: Kafka -> ROS Processor (via left margin, rounded corners) -->
  <path d="M 510 440 L 283 440 Q 268 440 268 455 L 268 735 Q 268 750 283 750 L 290 750" fill="none" stroke="#6B46C1" stroke-width="1.6" marker-end="url(#arwPurple)"/>
  <rect x="330" y="425" width="22" height="15" rx="7" fill="#6B46C1"/>
  <text x="341" y="436" text-anchor="middle" font-size="9" font-weight="700" fill="#fff">11</text>

  <!-- 12: ROS Processor -> Kruize -->
  <line x1="440" y1="750" x2="488" y2="750" stroke="#6B46C1" stroke-width="1.6" marker-end="url(#arwPurple)"/>
  <rect x="450" y="738" width="22" height="15" rx="7" fill="#6B46C1"/>
  <text x="461" y="749" text-anchor="middle" font-size="9" font-weight="700" fill="#fff">12</text>

  <!-- 13: Kruize -> ROS API -->
  <line x1="630" y1="750" x2="678" y2="750" stroke="#6B46C1" stroke-width="1.6" marker-end="url(#arwPurple)"/>
  <rect x="642" y="738" width="22" height="15" rx="7" fill="#6B46C1"/>
  <text x="653" y="749" text-anchor="middle" font-size="9" font-weight="700" fill="#fff">13</text>

  <!-- ROS -> PostgreSQL (same DB instance serves all databases) -->
  <path d="M 750 730 Q 680 695 610 672" fill="none" stroke="#718096" stroke-width="1.3" marker-end="url(#arwGray)" stroke-dasharray="4,3"/>

  <!-- Legend -->
  <rect x="20" y="830" width="1160" height="78" rx="6" fill="#fff" stroke="#E2E8F0" stroke-width="1"/>
  <text x="600" y="852" text-anchor="middle" font-size="13" font-weight="700" fill="#1A202C">Flow Summary</text>

  <rect x="40" y="862" width="12" height="12" rx="2" fill="#9B2C2C"/>
  <text x="58" y="873" font-size="10" fill="#4A5568">A: CMMO gets JWT from Keycloak</text>

  <rect x="240" y="862" width="12" height="12" rx="2" fill="#2B6CB0"/>
  <text x="258" y="873" font-size="10" fill="#4A5568">1-3: Upload via Route &#8594; Envoy (JWT validated) &#8594; Ingress</text>

  <rect x="555" y="862" width="12" height="12" rx="2" fill="#C05621"/>
  <text x="573" y="873" font-size="10" fill="#4A5568">4-5: Store to S3 + announce to Kafka</text>

  <rect x="40" y="882" width="12" height="12" rx="2" fill="#2B6CB0"/>
  <text x="58" y="893" font-size="10" fill="#4A5568">6-9: Listener &#8594; MASU &#8594; Celery Workers &#8594; PostgreSQL</text>

  <rect x="380" y="882" width="12" height="12" rx="2" fill="#6B46C1"/>
  <text x="398" y="893" font-size="10" fill="#4A5568">10-13: ROS pipeline &#8212; MASU emits events &#8594; ROS Processor &#8594; Kruize &#8594; ROS API</text>

  <rect x="830" y="862" width="12" height="12" rx="2" fill="#276749"/>
  <text x="848" y="873" font-size="10" fill="#4A5568">Envoy injects X-Rh-Identity header; backends trust gateway auth</text>
</svg>
