<svg xmlns="http://www.w3.org/2000/svg" viewBox="0 0 1300 880" font-family="Segoe UI, Roboto, Helvetica, Arial, sans-serif">
  <defs>
    <marker id="aPink" markerWidth="8" markerHeight="6" refX="7" refY="3" orient="auto">
      <polygon points="0 0,8 3,0 6" fill="#c2185b"/>
    </marker>
    <marker id="aPurple" markerWidth="8" markerHeight="6" refX="7" refY="3" orient="auto">
      <polygon points="0 0,8 3,0 6" fill="#7b1fa2"/>
    </marker>
    <marker id="aBlue" markerWidth="8" markerHeight="6" refX="7" refY="3" orient="auto">
      <polygon points="0 0,8 3,0 6" fill="#01579b"/>
    </marker>
    <marker id="aOrange" markerWidth="8" markerHeight="6" refX="7" refY="3" orient="auto">
      <polygon points="0 0,8 3,0 6" fill="#ef6c00"/>
    </marker>
    <marker id="aGreen" markerWidth="8" markerHeight="6" refX="7" refY="3" orient="auto">
      <polygon points="0 0,8 3,0 6" fill="#2e7d32"/>
    </marker>
    <marker id="aGray" markerWidth="8" markerHeight="6" refX="7" refY="3" orient="auto">
      <polygon points="0 0,8 3,0 6" fill="#546e7a"/>
    </marker>
    <filter id="sh" x="-2%" y="-2%" width="104%" height="104%">
      <feDropShadow dx="1" dy="1" stdDeviation="2" flood-opacity="0.1"/>
    </filter>
  </defs>

  <rect width="1300" height="880" rx="8" fill="#f8f9fa"/>

  <text x="650" y="32" text-anchor="middle" font-size="20" font-weight="700" fill="#1a1a1a">Cost Management On-Premise &#8212; Gateway Routing</text>
  <text x="650" y="50" text-anchor="middle" font-size="11" fill="#868e96">Request flow from external clients through Envoy gateway to backend services</text>

  <!-- ==================== EXTERNAL TRAFFIC ==================== -->
  <!-- Arranged left-to-right by target: API+Operator -> RouteAPI (left), Browser -> RouteUI (right) -->
  <rect x="40" y="65" width="880" height="80" rx="10" fill="#fce4ec" stroke="#c2185b" stroke-width="1.5" stroke-dasharray="6,3"/>
  <text x="58" y="82" font-size="9" font-weight="700" fill="#c2185b" letter-spacing="0.8">EXTERNAL TRAFFIC</text>

  <rect x="60" y="90" width="180" height="44" rx="8" fill="#fff" stroke="#c2185b" stroke-width="1.5" filter="url(#sh)"/>
  <text x="150" y="110" text-anchor="middle" font-size="12" font-weight="600" fill="#1a1a1a">API Client</text>
  <text x="150" y="124" text-anchor="middle" font-size="9" fill="#868e96">curl, scripts</text>

  <rect x="270" y="90" width="310" height="44" rx="8" fill="#fff" stroke="#c2185b" stroke-width="1.5" filter="url(#sh)"/>
  <text x="425" y="110" text-anchor="middle" font-size="12" font-weight="600" fill="#1a1a1a">Cost Management Metrics Operator</text>
  <text x="425" y="124" text-anchor="middle" font-size="9" fill="#868e96">/api/cost-management/*, /api/ingress/*</text>

  <rect x="620" y="90" width="280" height="44" rx="8" fill="#fff" stroke="#c2185b" stroke-width="1.5" filter="url(#sh)"/>
  <text x="760" y="110" text-anchor="middle" font-size="12" font-weight="600" fill="#1a1a1a">Browser</text>
  <text x="760" y="124" text-anchor="middle" font-size="9" fill="#868e96">UI access (dashboard, reports)</text>

  <!-- ==================== OPENSHIFT ROUTER ==================== -->
  <rect x="80" y="180" width="780" height="75" rx="10" fill="#f3e5f5" stroke="#7b1fa2" stroke-width="1.5" stroke-dasharray="6,3"/>
  <text x="98" y="197" font-size="9" font-weight="700" fill="#7b1fa2" letter-spacing="0.8">OPENSHIFT ROUTER</text>

  <rect x="100" y="205" width="300" height="40" rx="8" fill="#fff" stroke="#7b1fa2" stroke-width="1.5" filter="url(#sh)"/>
  <text x="250" y="222" text-anchor="middle" font-size="11" font-weight="600" fill="#1a1a1a">Route: /api/* &#8594; gateway:80</text>
  <text x="250" y="236" text-anchor="middle" font-size="9" fill="#868e96">API traffic</text>

  <rect x="530" y="205" width="300" height="40" rx="8" fill="#fff" stroke="#7b1fa2" stroke-width="1.5" filter="url(#sh)"/>
  <text x="680" y="222" text-anchor="middle" font-size="11" font-weight="600" fill="#1a1a1a">Route: / &#8594; ui:443</text>
  <text x="680" y="236" text-anchor="middle" font-size="9" fill="#868e96">UI traffic (TLS reencrypt)</text>

  <!-- ==================== ENVOY GATEWAY POD ==================== -->
  <rect x="40" y="295" width="590" height="265" rx="10" fill="#e1f5fe" stroke="#01579b" stroke-width="1.5"/>
  <text x="58" y="315" font-size="9" font-weight="700" fill="#01579b" letter-spacing="0.8">ENVOY GATEWAY POD</text>

  <rect x="60" y="325" width="260" height="40" rx="8" fill="#fff" stroke="#01579b" stroke-width="1.5" filter="url(#sh)"/>
  <text x="190" y="342" text-anchor="middle" font-size="12" font-weight="600" fill="#01579b">Envoy Proxy :9080</text>
  <text x="190" y="356" text-anchor="middle" font-size="9" fill="#868e96">Main listener</text>

  <rect x="340" y="325" width="270" height="40" rx="8" fill="#fff" stroke="#01579b" stroke-width="1.5" filter="url(#sh)"/>
  <text x="475" y="342" text-anchor="middle" font-size="12" font-weight="600" fill="#01579b">Admin :9901</text>
  <text x="475" y="356" text-anchor="middle" font-size="9" fill="#868e96">/stats/prometheus</text>

  <!-- Filters subgroup -->
  <rect x="60" y="380" width="550" height="165" rx="8" fill="rgba(1,87,155,0.06)" stroke="#01579b" stroke-width="1" stroke-dasharray="5,3"/>
  <text x="78" y="398" font-size="9" font-weight="700" fill="#01579b" letter-spacing="0.6">HTTP FILTER CHAIN</text>

  <rect x="80" y="415" width="155" height="55" rx="8" fill="#fff" stroke="#01579b" stroke-width="1.5" filter="url(#sh)"/>
  <text x="157" y="436" text-anchor="middle" font-size="11" font-weight="600" fill="#01579b">JWT Auth Filter</text>
  <text x="157" y="452" text-anchor="middle" font-size="9" fill="#868e96">Keycloak validation</text>

  <rect x="260" y="415" width="155" height="55" rx="8" fill="#fff" stroke="#01579b" stroke-width="1.5" filter="url(#sh)"/>
  <text x="337" y="436" text-anchor="middle" font-size="11" font-weight="600" fill="#01579b">Lua Filter</text>
  <text x="337" y="452" text-anchor="middle" font-size="9" fill="#868e96">X-Rh-Identity injection</text>

  <rect x="440" y="415" width="155" height="55" rx="8" fill="#fff" stroke="#01579b" stroke-width="1.5" filter="url(#sh)"/>
  <text x="517" y="436" text-anchor="middle" font-size="11" font-weight="600" fill="#01579b">Router Filter</text>
  <text x="517" y="452" text-anchor="middle" font-size="9" fill="#868e96">Path + method routing</text>

  <!-- Filter chain arrows -->
  <line x1="235" y1="442" x2="258" y2="442" stroke="#01579b" stroke-width="1.8" marker-end="url(#aBlue)"/>
  <line x1="415" y1="442" x2="438" y2="442" stroke="#01579b" stroke-width="1.8" marker-end="url(#aBlue)"/>

  <text x="335" y="496" text-anchor="middle" font-size="10" fill="#01579b" font-style="italic">Validate &#8594; Enrich &#8594; Route</text>

  <!-- Gateway routing summary -->
  <text x="78" y="514" font-size="9" fill="#546e7a">Routes: /api/cost-management/* | /api/ingress/* | /api/.../recommendations/openshift</text>
  <text x="78" y="530" font-size="9" fill="#546e7a">Koku API handles cost-management + sources; read/write split via Envoy route match</text>

  <!-- ==================== UI POD ==================== -->
  <rect x="670" y="295" width="310" height="220" rx="10" fill="#fff3e0" stroke="#ef6c00" stroke-width="1.5"/>
  <text x="688" y="315" font-size="9" font-weight="700" fill="#ef6c00" letter-spacing="0.8">UI POD</text>

  <rect x="690" y="325" width="270" height="40" rx="8" fill="#fff" stroke="#ef6c00" stroke-width="1.5" filter="url(#sh)"/>
  <text x="825" y="342" text-anchor="middle" font-size="12" font-weight="600" fill="#ef6c00">oauth2-proxy :4180</text>
  <text x="825" y="356" text-anchor="middle" font-size="9" fill="#868e96">Keycloak OIDC sidecar</text>

  <rect x="690" y="385" width="270" height="40" rx="8" fill="#fff" stroke="#ef6c00" stroke-width="1.5" filter="url(#sh)"/>
  <text x="825" y="402" text-anchor="middle" font-size="12" font-weight="600" fill="#ef6c00">nginx :8080</text>
  <text x="825" y="416" text-anchor="middle" font-size="9" fill="#868e96">Reverse proxy + static server</text>

  <rect x="690" y="445" width="270" height="40" rx="8" fill="#fff" stroke="#ef6c00" stroke-width="1.5" filter="url(#sh)"/>
  <text x="825" y="462" text-anchor="middle" font-size="12" font-weight="600" fill="#ef6c00">Static Files</text>
  <text x="825" y="476" text-anchor="middle" font-size="9" fill="#868e96">/opt/app-root/src/</text>

  <!-- ==================== KEYCLOAK (below UI Pod) ==================== -->
  <rect x="790" y="530" width="250" height="95" rx="10" fill="#ffebee" stroke="#c62828" stroke-width="1.5"/>
  <text x="808" y="550" font-size="9" font-weight="700" fill="#c62828" letter-spacing="0.8">RHBK / KEYCLOAK</text>

  <rect x="810" y="568" width="210" height="44" rx="8" fill="#fff" stroke="#c62828" stroke-width="1.5" filter="url(#sh)"/>
  <text x="915" y="587" text-anchor="middle" font-size="11" font-weight="600" fill="#c62828">JWKS Endpoint</text>
  <text x="915" y="601" text-anchor="middle" font-size="9" fill="#868e96">/realms/.../certs</text>

  <!-- ==================== BACKEND SERVICES ==================== -->
  <rect x="40" y="605" width="720" height="105" rx="10" fill="#e8f5e9" stroke="#2e7d32" stroke-width="1.5"/>
  <text x="58" y="625" font-size="9" font-weight="700" fill="#2e7d32" letter-spacing="0.8">BACKEND SERVICES</text>

  <rect x="60" y="635" width="250" height="60" rx="8" fill="#fff" stroke="#2e7d32" stroke-width="1.5" filter="url(#sh)"/>
  <text x="185" y="656" text-anchor="middle" font-size="12" font-weight="600" fill="#2e7d32">koku-api :8000</text>
  <text x="185" y="672" text-anchor="middle" font-size="9" fill="#868e96">Cost management + sources (all methods)</text>
  <text x="185" y="686" text-anchor="middle" font-size="9" fill="#546e7a">/api/cost-management/* | /api/sources/*</text>

  <rect x="330" y="635" width="200" height="60" rx="8" fill="#fff" stroke="#2e7d32" stroke-width="1.5" filter="url(#sh)"/>
  <text x="430" y="656" text-anchor="middle" font-size="12" font-weight="600" fill="#2e7d32">ingress :8081</text>
  <text x="430" y="672" text-anchor="middle" font-size="9" fill="#868e96">File upload</text>
  <text x="430" y="686" text-anchor="middle" font-size="9" fill="#546e7a">/api/ingress/*</text>

  <rect x="550" y="635" width="195" height="60" rx="8" fill="#fff" stroke="#2e7d32" stroke-width="1.5" filter="url(#sh)"/>
  <text x="647" y="656" text-anchor="middle" font-size="12" font-weight="600" fill="#2e7d32">ros-api :8000</text>
  <text x="647" y="672" text-anchor="middle" font-size="9" fill="#868e96">Recommendations</text>
  <text x="647" y="686" text-anchor="middle" font-size="9" fill="#546e7a">/api/.../recommendations/*</text>

  <!-- ==================== FLOW ARROWS ==================== -->

  <!-- External -> Router (no crossings: left clients -> left route, right client -> right route) -->
  <line x1="150" y1="134" x2="200" y2="203" stroke="#c2185b" stroke-width="1.6" marker-end="url(#aPink)"/>
  <line x1="425" y1="134" x2="310" y2="203" stroke="#c2185b" stroke-width="1.6" marker-end="url(#aPink)"/>
  <line x1="760" y1="134" x2="700" y2="203" stroke="#c2185b" stroke-width="1.6" marker-end="url(#aPink)"/>

  <!-- Router -> Gateway / UI (no crossings) -->
  <line x1="250" y1="245" x2="190" y2="323" stroke="#7b1fa2" stroke-width="1.6" marker-end="url(#aPurple)"/>
  <line x1="680" y1="245" x2="780" y2="323" stroke="#7b1fa2" stroke-width="1.6" marker-end="url(#aPurple)"/>

  <!-- UI internal flow -->
  <line x1="825" y1="365" x2="825" y2="383" stroke="#ef6c00" stroke-width="1.5" marker-end="url(#aOrange)"/>
  <line x1="825" y1="425" x2="825" y2="443" stroke="#ef6c00" stroke-width="1.5" marker-end="url(#aOrange)"/>
  <text x="838" y="438" font-size="8" fill="#ef6c00">/*</text>

  <!-- Nginx -> Gateway (/api/*) -->
  <path d="M 690 405 L 632 405" fill="none" stroke="#ef6c00" stroke-width="1.5" marker-end="url(#aOrange)"/>
  <text x="645" y="398" font-size="8" fill="#ef6c00">/api/*</text>

  <!-- Gateway -> Backends (3 arrows fanning out without crossings) -->
  <line x1="185" y1="560" x2="185" y2="633" stroke="#2e7d32" stroke-width="1.5" marker-end="url(#aGreen)"/>
  <line x1="335" y1="560" x2="430" y2="633" stroke="#2e7d32" stroke-width="1.5" marker-end="url(#aGreen)"/>
  <line x1="480" y1="560" x2="647" y2="633" stroke="#2e7d32" stroke-width="1.5" marker-end="url(#aGreen)"/>

  <!-- Gateway -> Keycloak (dashed, short hop to the right) -->
  <path d="M 632 555 L 788 555" fill="none" stroke="#c62828" stroke-width="1.5" marker-end="url(#aGray)" stroke-dasharray="6,3"/>
  <text x="640" y="548" font-size="9" fill="#c62828" font-weight="600">Validate JWT (JWKS)</text>

  <!-- ==================== LEGEND ==================== -->
  <rect x="40" y="740" width="1230" height="55" rx="8" fill="#fff" stroke="#dee2e6" stroke-width="1"/>
  <text x="650" y="760" text-anchor="middle" font-size="12" font-weight="700" fill="#1a1a1a">Legend</text>

  <rect x="70" y="774" width="14" height="14" rx="3" fill="#fce4ec" stroke="#c2185b" stroke-width="1"/>
  <text x="92" y="786" font-size="10" fill="#546e7a">External Traffic</text>

  <rect x="220" y="774" width="14" height="14" rx="3" fill="#f3e5f5" stroke="#7b1fa2" stroke-width="1"/>
  <text x="242" y="786" font-size="10" fill="#546e7a">OpenShift Router</text>

  <rect x="380" y="774" width="14" height="14" rx="3" fill="#e1f5fe" stroke="#01579b" stroke-width="1"/>
  <text x="402" y="786" font-size="10" fill="#546e7a">Envoy Gateway</text>

  <rect x="530" y="774" width="14" height="14" rx="3" fill="#fff3e0" stroke="#ef6c00" stroke-width="1"/>
  <text x="552" y="786" font-size="10" fill="#546e7a">UI Pod</text>

  <rect x="630" y="774" width="14" height="14" rx="3" fill="#e8f5e9" stroke="#2e7d32" stroke-width="1"/>
  <text x="652" y="786" font-size="10" fill="#546e7a">Backend Services</text>

  <rect x="800" y="774" width="14" height="14" rx="3" fill="#ffebee" stroke="#c62828" stroke-width="1"/>
  <text x="822" y="786" font-size="10" fill="#546e7a">Keycloak (RHBK)</text>

  <line x1="960" y1="781" x2="1000" y2="781" stroke="#546e7a" stroke-width="1.5" stroke-dasharray="5,3"/>
  <text x="1010" y="786" font-size="10" fill="#546e7a">JWT validation</text>
</svg>
