<svg xmlns="http://www.w3.org/2000/svg" viewBox="0 0 1100 820" font-family="Segoe UI, Roboto, Helvetica, Arial, sans-serif">
  <defs>
    <marker id="arrowBlue" markerWidth="10" markerHeight="7" refX="10" refY="3.5" orient="auto">
      <polygon points="0 0, 10 3.5, 0 7" fill="#2B6CB0"/>
    </marker>
    <marker id="arrowGreen" markerWidth="10" markerHeight="7" refX="10" refY="3.5" orient="auto">
      <polygon points="0 0, 10 3.5, 0 7" fill="#276749"/>
    </marker>
    <marker id="arrowOrange" markerWidth="10" markerHeight="7" refX="10" refY="3.5" orient="auto">
      <polygon points="0 0, 10 3.5, 0 7" fill="#C05621"/>
    </marker>
    <marker id="arrowGray" markerWidth="10" markerHeight="7" refX="10" refY="3.5" orient="auto">
      <polygon points="0 0, 10 3.5, 0 7" fill="#718096"/>
    </marker>
    <filter id="shadow" x="-2%" y="-2%" width="104%" height="104%">
      <feDropShadow dx="1" dy="1" stdDeviation="2" flood-opacity="0.12"/>
    </filter>
  </defs>

  <rect width="1100" height="820" rx="8" fill="#F7FAFC"/>

  <text x="550" y="38" text-anchor="middle" font-size="20" font-weight="700" fill="#1A202C">Cost Management On-Premise &#8212; UI Login Flow</text>
  <text x="550" y="58" text-anchor="middle" font-size="12" fill="#718096">OAuth2 Proxy + Keycloak OIDC Authentication</text>

  <!-- External Zone -->
  <rect x="20" y="75" width="200" height="720" rx="6" fill="#EBF8FF" stroke="#BEE3F8" stroke-width="1.5"/>
  <text x="120" y="96" text-anchor="middle" font-size="11" font-weight="600" fill="#2B6CB0">External</text>

  <rect x="45" y="115" width="150" height="54" rx="8" fill="#fff" stroke="#2B6CB0" stroke-width="1.5" filter="url(#shadow)"/>
  <text x="120" y="139" text-anchor="middle" font-size="13" font-weight="600" fill="#2B6CB0">Browser</text>
  <text x="120" y="156" text-anchor="middle" font-size="10" fill="#4A5568">End User</text>

  <!-- OpenShift Cluster Zone -->
  <rect x="240" y="75" width="840" height="720" rx="6" fill="#F0FFF4" stroke="#C6F6D5" stroke-width="1.5"/>
  <text x="660" y="96" text-anchor="middle" font-size="11" font-weight="600" fill="#276749">OpenShift Cluster</text>

  <rect x="280" y="115" width="160" height="54" rx="8" fill="#fff" stroke="#276749" stroke-width="1.5" filter="url(#shadow)"/>
  <text x="360" y="139" text-anchor="middle" font-size="13" font-weight="600" fill="#276749">OpenShift Route</text>
  <text x="360" y="156" text-anchor="middle" font-size="10" fill="#4A5568">TLS Termination</text>

  <!-- UI Pod box -->
  <rect x="270" y="200" width="380" height="200" rx="6" fill="#FEFCBF" stroke="#ECC94B" stroke-width="1.2" stroke-dasharray="6,3"/>
  <text x="460" y="220" text-anchor="middle" font-size="11" font-weight="600" fill="#975A16">UI Pod</text>

  <rect x="290" y="235" width="160" height="54" rx="8" fill="#fff" stroke="#D69E2E" stroke-width="1.5" filter="url(#shadow)"/>
  <text x="370" y="259" text-anchor="middle" font-size="13" font-weight="600" fill="#975A16">OAuth2 Proxy</text>
  <text x="370" y="276" text-anchor="middle" font-size="10" fill="#4A5568">OIDC + Session Cookie</text>

  <rect x="290" y="320" width="160" height="54" rx="8" fill="#fff" stroke="#D69E2E" stroke-width="1.5" filter="url(#shadow)"/>
  <text x="370" y="344" text-anchor="middle" font-size="13" font-weight="600" fill="#975A16">Nginx</text>
  <text x="370" y="361" text-anchor="middle" font-size="10" fill="#4A5568">Static UI + /api/ proxy</text>

  <rect x="700" y="115" width="160" height="54" rx="8" fill="#fff" stroke="#9B2C2C" stroke-width="1.5" filter="url(#shadow)"/>
  <text x="780" y="139" text-anchor="middle" font-size="13" font-weight="600" fill="#9B2C2C">Keycloak (RHBK)</text>
  <text x="780" y="156" text-anchor="middle" font-size="10" fill="#4A5568">OIDC Provider / JWKS</text>

  <rect x="560" y="320" width="180" height="54" rx="8" fill="#fff" stroke="#276749" stroke-width="1.5" filter="url(#shadow)"/>
  <text x="650" y="344" text-anchor="middle" font-size="13" font-weight="600" fill="#276749">Envoy Gateway</text>
  <text x="650" y="361" text-anchor="middle" font-size="10" fill="#4A5568">JWT Validation + Lua</text>

  <rect x="490" y="450" width="160" height="54" rx="8" fill="#fff" stroke="#276749" stroke-width="1.5" filter="url(#shadow)"/>
  <text x="570" y="474" text-anchor="middle" font-size="13" font-weight="600" fill="#276749">Koku API</text>
  <text x="570" y="491" text-anchor="middle" font-size="10" fill="#4A5568">Cost Management API</text>

  <rect x="700" y="450" width="160" height="54" rx="8" fill="#fff" stroke="#276749" stroke-width="1.5" filter="url(#shadow)"/>
  <text x="780" y="474" text-anchor="middle" font-size="13" font-weight="600" fill="#276749">ROS API</text>
  <text x="780" y="491" text-anchor="middle" font-size="10" fill="#4A5568">Resource Optimization</text>

  <!-- Step 1: Browser -> Route -->
  <line x1="195" y1="142" x2="278" y2="142" stroke="#2B6CB0" stroke-width="1.8" marker-end="url(#arrowBlue)"/>
  <rect x="208" y="122" width="18" height="16" rx="8" fill="#2B6CB0"/>
  <text x="217" y="134" text-anchor="middle" font-size="10" font-weight="700" fill="#fff">1</text>

  <!-- Step 2: Route -> OAuth2 Proxy -->
  <line x1="360" y1="169" x2="360" y2="233" stroke="#276749" stroke-width="1.8" marker-end="url(#arrowGreen)"/>
  <rect x="365" y="186" width="18" height="16" rx="8" fill="#276749"/>
  <text x="374" y="198" text-anchor="middle" font-size="10" font-weight="700" fill="#fff">2</text>

  <!-- Step 3: OAuth2 Proxy -> Keycloak (redirect) -->
  <path d="M 450 250 Q 580 200 698 142" fill="none" stroke="#C05621" stroke-width="1.8" marker-end="url(#arrowOrange)" stroke-dasharray="6,3"/>
  <rect x="558" y="199" width="18" height="16" rx="8" fill="#C05621"/>
  <text x="567" y="211" text-anchor="middle" font-size="10" font-weight="700" fill="#fff">3</text>

  <!-- Step 4: Keycloak -> Browser (auth code redirect, routed above Route) -->
  <path d="M 700 125 Q 400 68 120 113" fill="none" stroke="#C05621" stroke-width="1.8" marker-end="url(#arrowOrange)" stroke-dasharray="6,3"/>
  <rect x="400" y="64" width="18" height="16" rx="8" fill="#C05621"/>
  <text x="409" y="76" text-anchor="middle" font-size="10" font-weight="700" fill="#fff">4</text>

  <!-- Step 5: Browser -> OAuth2 Proxy (callback) -->
  <path d="M 170 169 L 170 262 L 288 262" fill="none" stroke="#2B6CB0" stroke-width="1.8" marker-end="url(#arrowBlue)"/>
  <rect x="148" y="212" width="18" height="16" rx="8" fill="#2B6CB0"/>
  <text x="157" y="224" text-anchor="middle" font-size="10" font-weight="700" fill="#fff">5</text>

  <!-- Step 6: OAuth2 Proxy -> Keycloak (token exchange, ends at left edge) -->
  <path d="M 450 262 L 550 262 Q 670 245 700 145" fill="none" stroke="#C05621" stroke-width="1.8" marker-end="url(#arrowOrange)"/>
  <rect x="600" y="236" width="18" height="16" rx="8" fill="#C05621"/>
  <text x="609" y="248" text-anchor="middle" font-size="10" font-weight="700" fill="#fff">6</text>

  <!-- Step 7: OAuth2 Proxy -> Nginx (authenticated) -->
  <line x1="370" y1="289" x2="370" y2="318" stroke="#276749" stroke-width="1.8" marker-end="url(#arrowGreen)"/>
  <rect x="375" y="296" width="18" height="16" rx="8" fill="#276749"/>
  <text x="384" y="308" text-anchor="middle" font-size="10" font-weight="700" fill="#fff">7</text>

  <!-- Step 8: Nginx -> Gateway (/api/ proxy) -->
  <line x1="450" y1="347" x2="558" y2="347" stroke="#276749" stroke-width="1.8" marker-end="url(#arrowGreen)"/>
  <rect x="490" y="330" width="18" height="16" rx="8" fill="#276749"/>
  <text x="499" y="342" text-anchor="middle" font-size="10" font-weight="700" fill="#fff">8</text>

  <!-- Step 9: Gateway -> Keycloak (JWKS fetch) -->
  <path d="M 740 340 L 780 340 L 780 171" fill="none" stroke="#718096" stroke-width="1.3" marker-end="url(#arrowGray)" stroke-dasharray="4,3"/>
  <rect x="785" y="250" width="18" height="16" rx="8" fill="#718096"/>
  <text x="794" y="262" text-anchor="middle" font-size="10" font-weight="700" fill="#fff">9</text>

  <!-- Step 10: Gateway -> Backend services -->
  <line x1="620" y1="374" x2="580" y2="448" stroke="#276749" stroke-width="1.8" marker-end="url(#arrowGreen)"/>
  <line x1="680" y1="374" x2="770" y2="448" stroke="#276749" stroke-width="1.8" marker-end="url(#arrowGreen)"/>
  <rect x="594" y="405" width="22" height="16" rx="8" fill="#276749"/>
  <text x="605" y="417" text-anchor="middle" font-size="10" font-weight="700" fill="#fff">10</text>

  <!-- Step Legend -->
  <rect x="30" y="540" width="1040" height="245" rx="6" fill="#fff" stroke="#E2E8F0" stroke-width="1"/>
  <text x="550" y="565" text-anchor="middle" font-size="14" font-weight="700" fill="#1A202C">Flow Steps</text>

  <!-- OIDC Login Phase -->
  <rect x="50" y="580" width="490" height="190" rx="4" fill="#FFF5F5" stroke="#FED7D7" stroke-width="1"/>
  <text x="295" y="600" text-anchor="middle" font-size="12" font-weight="600" fill="#9B2C2C">OIDC Authorization Code Flow (Initial Login)</text>

  <rect x="62" y="614" width="18" height="16" rx="8" fill="#2B6CB0"/>
  <text x="71" y="626" text-anchor="middle" font-size="10" font-weight="700" fill="#fff">1</text>
  <text x="88" y="626" font-size="11" fill="#2D3748">Browser requests UI (HTTPS to OpenShift Route)</text>

  <rect x="62" y="636" width="18" height="16" rx="8" fill="#276749"/>
  <text x="71" y="648" text-anchor="middle" font-size="10" font-weight="700" fill="#fff">2</text>
  <text x="88" y="648" font-size="11" fill="#2D3748">Route forwards to OAuth2 Proxy (TLS reencrypt)</text>

  <rect x="62" y="658" width="18" height="16" rx="8" fill="#C05621"/>
  <text x="71" y="670" text-anchor="middle" font-size="10" font-weight="700" fill="#fff">3</text>
  <text x="88" y="670" font-size="11" fill="#2D3748">No session &#8594; 302 redirect to Keycloak authorize endpoint</text>

  <rect x="62" y="680" width="18" height="16" rx="8" fill="#C05621"/>
  <text x="71" y="692" text-anchor="middle" font-size="10" font-weight="700" fill="#fff">4</text>
  <text x="88" y="692" font-size="11" fill="#2D3748">User authenticates; Keycloak redirects back with auth code</text>

  <rect x="62" y="702" width="18" height="16" rx="8" fill="#2B6CB0"/>
  <text x="71" y="714" text-anchor="middle" font-size="10" font-weight="700" fill="#fff">5</text>
  <text x="88" y="714" font-size="11" fill="#2D3748">Browser sends callback to OAuth2 Proxy (/oauth2/callback)</text>

  <rect x="62" y="724" width="18" height="16" rx="8" fill="#C05621"/>
  <text x="71" y="736" text-anchor="middle" font-size="10" font-weight="700" fill="#fff">6</text>
  <text x="88" y="736" font-size="11" fill="#2D3748">OAuth2 Proxy exchanges code for JWT tokens (ID + Access)</text>

  <!-- Authenticated API Phase -->
  <rect x="560" y="580" width="490" height="190" rx="4" fill="#F0FFF4" stroke="#C6F6D5" stroke-width="1"/>
  <text x="805" y="600" text-anchor="middle" font-size="12" font-weight="600" fill="#276749">Authenticated Session (API Requests)</text>

  <rect x="572" y="614" width="18" height="16" rx="8" fill="#276749"/>
  <text x="581" y="626" text-anchor="middle" font-size="10" font-weight="700" fill="#fff">7</text>
  <text x="598" y="626" font-size="11" fill="#2D3748">Session cookie set; requests forwarded to Nginx</text>

  <rect x="572" y="636" width="18" height="16" rx="8" fill="#276749"/>
  <text x="581" y="648" text-anchor="middle" font-size="10" font-weight="700" fill="#fff">8</text>
  <text x="598" y="648" font-size="11" fill="#2D3748">Nginx proxies /api/ to Envoy Gateway (with Bearer token)</text>

  <rect x="572" y="658" width="18" height="16" rx="8" fill="#718096"/>
  <text x="581" y="670" text-anchor="middle" font-size="10" font-weight="700" fill="#fff">9</text>
  <text x="598" y="670" font-size="11" fill="#2D3748">Envoy validates JWT via Keycloak JWKS endpoint</text>

  <rect x="572" y="680" width="22" height="16" rx="8" fill="#276749"/>
  <text x="583" y="692" text-anchor="middle" font-size="10" font-weight="700" fill="#fff">10</text>
  <text x="602" y="692" font-size="11" fill="#2D3748">Lua injects X-Rh-Identity + X-Bearer-Token headers;</text>
  <text x="602" y="706" font-size="11" fill="#2D3748">routes to Koku API or ROS API based on path</text>

  <text x="602" y="740" font-size="10" fill="#718096" font-style="italic">Session cookie = edge auth; JWT = gateway auth for backends</text>
</svg>
